<svg id="logo" data-name="logo" xmlns="http://www.w3.org/2000/svg" viewBox="0 0 566.93 492.93"><defs><style>.cls-1{fill:white;}</style></defs><title>logo</title><path class="cls-1" d="M183,41.93v128H155V77.35l-36,92.58H107.06L71,77.35v92.58H44v-128H82.26l31.14,80,31.15-80Zm285.85,149-31.72,80-31.7-80H368v128h27v-92.3l35.76,92.3H443.2l36.8-92.3v92.3h28v-128ZM87,358.93V323.59L72.54,358.93h-5.3L54,323.59v35.34H44v-49H57.69l12.46,30.63,12.46-30.63H98v49Zm17.77-24.7c0-14.85,10.86-25.49,25.78-25.49s25.71,10.64,25.71,25.49-10.86,25.49-25.71,25.49-25.78-10.64-25.78-25.49m40.71,0c0-9.24-5.84-16.18-14.93-16.18s-15,6.94-15,16.18,5.84,16.18,15,16.18,14.93-7,14.93-16.18M173,358.93v-40H159v-9h39v9H184v40Zm45,0v-40H204v-9h39v9H229v40Zm-131,76V399.59L72.54,434.93h-5.3L54,399.59v35.34H44v-49H57.69l12.46,30.63,12.46-30.63H98v49Zm54.63,0-3-8H118.42l-3,8H103.12l18.88-49h13.08l18.88,49Zm-13.09-38.2-7.68,21.2h15.36Zm25.7,13.77c0-15.22,11.46-25.49,26.31-25.49,10.78,0,17.06,5.84,20.54,12l-9,4.43a13.33,13.33,0,0,0-11.52-7.16c-9,0-15.52,6.87-15.52,16.18s6.5,16.18,15.52,16.18a13.32,13.32,0,0,0,11.52-7.17l9,4.36C197.61,430,191.33,436,180.55,436c-14.85,0-26.31-10.35-26.31-25.49M208,434.93v-49h19.32c15.36,0,26,9.77,26,24.46,0,14.84-10.65,24.54-25.93,24.54Zm35.53-24.54c0-8.7-5.35-15.46-15.46-15.46H219v31h9c9.81,0,15.53-7.06,15.53-15.54m15.84.11c0-14.85,10.86-25.49,25.79-25.49s25.7,10.64,25.7,25.49S300,436,285.16,436s-25.79-10.64-25.79-25.49m40.71,0c0-9.24-5.84-16.18-14.92-16.18s-15,6.94-15,16.18,5.83,16.18,15,16.18,14.92-7,14.92-16.18m51.68,24.43L328,403v32H318v-49h10.91L352,416.71V385.93h10v49Zm54.64,0-3-8H383.18l-3,8H367.89l18.88-49h13.07l18.88,49Zm-13.09-38.2-7.69,21.2H401ZM424,434.93v-49h11v40h21v9Zm38,0v-49h19.32c15.35,0,26,9.77,26,24.46,0,14.84-10.66,24.54-25.94,24.54Zm34.53-24.54c0-8.7-5.35-15.46-15.46-15.46H472v31h9c9.81,0,15.53-7.06,15.53-15.54"/></svg>